# xmcd
#
# Track frame offsets: 
#        205
#        12905
#        26330
#        41257
#        51482
#        65007
#        79282
#        91410
#        104235
#        118372
#        132237
#        144590
#        158140
#        170115
#        181997
#        194502
#        203670
#        216215
#        228865
#        243230
#
# Disc length: 3402 seconds
#
# Revision: 1
# Processed by: cddbd v1.5.2PL0 Copyright (c) Steve Scherf et al.
# Submitted via: ExactAudioCopy v0.99pb4
#
DISCID=250d4814
DTITLE=Dionne Warwick - The 20 Greatest Hits
DYEAR=1986
DGENRE=Soul
TTITLE0=Walk On By
TTITLE1=I Say A Little Prayer
TTITLE2=Valley Of The Dolls
TTITLE3=I'll Never Fall In Love Again
TTITLE4=Anyone Who Had A Heart
TTITLE5=Message To Michael
TTITLE6=Do You Know The Way To San Jose
TTITLE7=Are You There With Another Girl
TTITLE8=Who Can I Turn To
TTITLE9=A House Is Not A Home
TTITLE10=Don't Make Me Over
TTITLE11=You'll Never Get To Heaven
TTITLE12=Make It Easy On Yourself
TTITLE13=Reach Out For Me
TTITLE14=Alfie
TTITLE15=You've Lost That Lovin' Feeling
TTITLE16=Train And Boats And Planes
TTITLE17=I Just Don't Know What To Do With Myself
TTITLE18=The Window Of The World
TTITLE19=Promises, Promises
EXTD=
EXTT0=
EXTT1=
EXTT2=
EXTT3=
EXTT4=
EXTT5=
EXTT6=
EXTT7=
EXTT8=
EXTT9=
EXTT10=
EXTT11=
EXTT12=
EXTT13=
EXTT14=
EXTT15=
EXTT16=
EXTT17=
EXTT18=
EXTT19=
PLAYORDER=
